<svg width="134" height="143" viewBox="0 0 134 143" fill="none" xmlns="http://www.w3.org/2000/svg">
<path fill-rule="evenodd" clip-rule="evenodd" d="M63.1074 0.239243C64.1815 -0.148708 65.4129 -0.0766141 66.4775 0.541977L131.843 38.5224C132.768 39.0604 133.397 39.9131 133.674 40.8662C133.883 41.3517 134 41.8868 134 42.4492C134 42.6186 133.988 42.7854 133.968 42.9492C133.988 43.113 134 43.2798 134 43.4492V138.449C134 140.658 132.209 142.449 130 142.449C127.791 142.449 126 140.658 126 138.449V46.4492H102V66.4492H113C115.209 66.4492 117 68.2401 117 70.4492V137.449C117 137.619 116.988 137.785 116.968 137.949C116.988 138.113 117 138.28 117 138.449C117 140.658 115.209 142.449 113 142.449H83C80.7909 142.449 79 140.658 79 138.449C79 138.28 79.0108 138.113 79.0312 137.949C79.0108 137.785 79 137.619 79 137.449V70.4492C79 68.3092 80.6806 66.5613 82.7939 66.4541C82.8622 66.4506 82.9309 66.4492 83 66.4492H94V46.4492H63C60.7909 46.4492 59 44.6583 59 42.4492C59 40.2401 60.7909 38.4492 63 38.4492H115.793L64.2266 8.48534L7 44.9033V134.449H49V119.449H23C21.792 119.449 20.71 118.913 19.9766 118.066C19.0096 117.293 18.4838 116.029 18.7139 114.724L26.0391 73.1797C20.5953 69.6059 17 63.4478 17 56.4492C17 45.4035 25.9543 36.4492 37 36.4492C48.0457 36.4492 57 45.4035 57 56.4492C57 67.4949 48.0457 76.4492 37 76.4492C35.5075 76.4492 34.0535 76.2837 32.6543 75.9736L30.6309 87.4492H53C55.2091 87.4492 57 89.2401 57 91.4492C57 93.6583 55.2091 95.4492 53 95.4492H29.2207L26.3994 111.449H53C53.0691 111.449 53.1378 111.451 53.2061 111.454C55.3194 111.561 57 113.309 57 115.449V138.449C57 140.589 55.3194 142.337 53.2061 142.444L53 142.449H4C3.91138 142.449 3.82351 142.445 3.73633 142.439C3.65818 142.445 3.57946 142.449 3.5 142.449C1.56701 142.449 1.03082e-05 140.882 0 138.949V42.9492C0 42.504 0.0828313 42.0782 0.234375 41.6865C0.309822 40.451 0.955958 39.2681 2.08008 38.5527L61.3301 0.847641C61.8851 0.494449 62.4945 0.295748 63.1074 0.239243ZM87 74.4492V134.449H109V74.4492H87Z" fill="#191A1C"/>
</svg>
