<svg width="45" height="45" viewBox="0 0 45 45" fill="none" xmlns="http://www.w3.org/2000/svg">
<path fill-rule="evenodd" clip-rule="evenodd" d="M27.4725 5.15528C26.8196 4.50217 26.0444 3.98408 25.1912 3.63061C24.338 3.27714 23.4235 3.09521 22.5 3.09521C21.5765 3.09521 20.662 3.27714 19.8088 3.63061C18.9557 3.98408 18.1805 4.50217 17.5275 5.15528L4.77283 17.91C4.11972 18.5629 3.60164 19.3381 3.24817 20.1913C2.8947 21.0445 2.71277 21.959 2.71277 22.8825C2.71277 23.806 2.8947 24.7204 3.24817 25.5736C3.60164 26.4268 4.11972 27.202 4.77283 27.855L17.5275 40.6097C18.1805 41.2628 18.9557 41.7808 19.8088 42.1343C20.662 42.4878 21.5765 42.6697 22.5 42.6697C23.4235 42.6697 24.338 42.4878 25.1912 42.1343C26.0444 41.7808 26.8196 41.2628 27.4725 40.6097L40.2272 27.855C40.8803 27.202 41.3984 26.4268 41.7519 25.5736C42.1053 24.7204 42.2873 23.806 42.2873 22.8825C42.2873 21.959 42.1053 21.0445 41.7519 20.1913C41.3984 19.3381 40.8803 18.5629 40.2272 17.91L27.4725 5.15528ZM21.0938 14.0625V21.0937H14.0625V23.9062H21.0938V30.9375H23.9063V23.9062H30.9375V21.0937H23.9063V14.0625H21.0938Z" fill="#213B6B"/>
</svg>
