<svg width="23" height="31" viewBox="0 0 23 31" fill="none" xmlns="http://www.w3.org/2000/svg">
<path fill-rule="evenodd" clip-rule="evenodd" d="M11.4985 3.41183e-06C9.98804 -0.00076964 8.49223 0.293929 7.09662 0.867247C5.70101 1.44056 4.43298 2.28125 3.36505 3.34124C2.29712 4.40122 1.45024 5.65971 0.872839 7.04472C0.295434 8.42974 -0.00116466 9.91412 3.43682e-06 11.413C3.43682e-06 13.1647 0.696073 15.2398 1.5284 17.1503C2.38738 19.1372 3.53071 21.2388 4.67405 23.1463C5.81739 25.0539 6.9933 26.8086 7.94115 28.0989C8.4121 28.7396 8.85048 29.2981 9.21481 29.7154C9.39253 29.9153 9.59098 30.1269 9.79536 30.3092C9.89607 30.3973 10.0471 30.5208 10.2337 30.6384H10.2397C10.617 30.8741 11.0537 30.9995 11.4996 31C11.9455 31.0005 12.3825 30.8762 12.7603 30.6413H12.7663C12.9225 30.5444 13.0692 30.4332 13.2046 30.3092C13.409 30.1299 13.6075 29.9153 13.7852 29.7125C14.2332 29.1933 14.6581 28.6549 15.0589 28.0989C16.0067 26.8056 17.1826 25.0539 18.3259 23.1463C19.4693 21.2388 20.6097 19.1372 21.4746 17.1503C22.3039 15.2398 23 13.1647 23 11.413C23.0012 9.91387 22.7045 8.42925 22.1269 7.04404C21.5493 5.65883 20.7021 4.40022 19.6339 3.3402C18.5656 2.28017 17.2973 1.43955 15.9013 0.866402C14.5054 0.293257 13.0092 -0.00115613 11.4985 3.41183e-06ZM13.9721 13.4648C13.316 14.1158 12.4263 14.4815 11.4985 14.4815C10.5708 14.4815 9.68099 14.1158 9.02496 13.4648C8.36894 12.8138 8.00038 11.9309 8.00038 11.0103C8.00038 10.0897 8.36894 9.20676 9.02496 8.55578C9.68099 7.9048 10.5708 7.53908 11.4985 7.53908C12.4263 7.53908 13.316 7.9048 13.9721 8.55578C14.6281 9.20676 14.9967 10.0897 14.9967 11.0103C14.9967 11.9309 14.6281 12.8138 13.9721 13.4648Z" fill="#AECAFF"/>
</svg>
