<svg width="32" height="32" viewBox="0 0 32 32" fill="none" xmlns="http://www.w3.org/2000/svg">
<path d="M15.0015 30.9724C14.9761 29.1388 14.2273 27.3889 12.9172 26.1012C11.607 24.8135 9.84087 24.0916 8.00073 24.0916C6.16059 24.0916 4.39443 24.8135 3.0843 26.1012C1.77417 27.3889 1.02541 29.1388 1 30.9724M25.0008 7.05328V22.9998M8.0014 22.1681C9.23921 22.1681 10.4263 21.6781 11.3016 20.8058C12.1768 19.9336 12.6686 18.7506 12.6686 17.5171C12.6686 16.2835 12.1768 15.1005 11.3016 14.2283C10.4263 13.3561 9.23921 12.8661 8.0014 12.8661C6.76359 12.8661 5.57649 13.3561 4.70122 14.2283C3.82596 15.1005 3.33425 16.2835 3.33425 17.5171C3.33425 18.7506 3.82596 19.9336 4.70122 20.8058C5.57649 21.6781 6.76359 22.1681 8.0014 22.1681ZM29.0003 20.5645V5.0598C29.01 4.53018 28.9137 4.00395 28.717 3.51183C28.5204 3.01972 28.2273 2.57159 27.8548 2.19363C27.4824 1.81566 27.0382 1.51544 26.548 1.3105C26.0579 1.10555 25.5317 1 25.0001 1C24.4686 1 23.9424 1.10555 23.4522 1.3105C22.9621 1.51544 22.5178 1.81566 22.1454 2.19363C21.773 2.57159 21.4799 3.01972 21.2832 3.51183C21.0866 4.00395 20.9903 4.53018 21 5.0598V20.5645C20.0944 21.3718 19.456 22.4341 19.1695 23.6109C18.8829 24.7876 18.9617 26.0233 19.3953 27.1545C19.8289 28.2857 20.5969 29.259 21.5977 29.9457C22.5986 30.6323 23.785 31 25.0001 31C26.2152 31 27.4017 30.6323 28.4025 29.9457C29.4034 29.259 30.1714 28.2857 30.605 27.1545C31.0386 26.0233 31.1173 24.7876 30.8308 23.6109C30.5442 22.4341 29.9059 21.3718 29.0003 20.5645Z" stroke="currentColor" stroke-width="2" stroke-linecap="round" stroke-linejoin="round"/>
<path d="M2.66558 10.3749C2.35892 10.0696 2.11564 9.70712 1.94966 9.30809C1.78368 8.90907 1.69824 8.48135 1.69824 8.0494C1.69824 7.61744 1.78368 7.18973 1.94966 6.7907C2.11564 6.39167 2.35892 6.02916 2.66558 5.72389C2.97225 5.41862 3.21552 5.05611 3.38151 4.65708C3.54749 4.25805 3.63292 3.83034 3.63292 3.39838C3.63292 2.96643 3.54749 2.53871 3.38151 2.13969C3.21552 1.74066 2.97225 1.37815 2.66558 1.07288M7.63454 10.3749C7.32787 10.0696 7.08459 9.70712 6.91861 9.30809C6.75263 8.90907 6.66719 8.48135 6.66719 8.0494C6.66719 7.61744 6.75263 7.18973 6.91861 6.7907C7.08459 6.39167 7.32787 6.02916 7.63454 5.72389C7.9412 5.41862 8.18448 5.05611 8.35046 4.65708C8.51644 4.25805 8.60188 3.83034 8.60188 3.39838C8.60188 2.96643 8.51644 2.53871 8.35046 2.13969C8.18448 1.74066 7.9412 1.37815 7.63454 1.07288M12.9694 10.3749C12.6627 10.0696 12.4194 9.70712 12.2535 9.30809C12.0875 8.90907 12.002 8.48135 12.002 8.0494C12.002 7.61744 12.0875 7.18973 12.2535 6.7907C12.4194 6.39167 12.6627 6.02916 12.9694 5.72389C13.5877 5.10684 13.9351 4.27044 13.9351 3.39838C13.9351 2.52633 13.5877 1.68993 12.9694 1.07288M25.0012 26.9855C25.2681 26.9924 25.5338 26.9459 25.7824 26.8488C26.0311 26.7518 26.2577 26.6061 26.449 26.4204C26.6402 26.2346 26.7922 26.0126 26.896 25.7674C26.9998 25.5222 27.0532 25.2588 27.0532 24.9927C27.0532 24.7265 26.9998 24.4631 26.896 24.2179C26.7922 23.9727 26.6402 23.7507 26.449 23.565C26.2577 23.3792 26.0311 23.2335 25.7824 23.1365C25.5338 23.0394 25.2681 22.993 25.0012 22.9998C24.4797 23.0133 23.9842 23.2291 23.6202 23.6014C23.2562 23.9736 23.0524 24.4729 23.0524 24.9927C23.0524 25.5124 23.2562 26.0117 23.6202 26.3839C23.9842 26.7562 24.4797 26.972 25.0012 26.9855Z" stroke="currentColor" stroke-width="2" stroke-linecap="round" stroke-linejoin="round"/>
</svg>
